<?xml version="1.0" encoding="UTF-8" standalone="no"?>
<!-- Created with Inkscape (http://www.inkscape.org/) -->

<svg
   xmlns:dc="http://purl.org/dc/elements/1.1/"
   xmlns:cc="http://creativecommons.org/ns#"
   xmlns:rdf="http://www.w3.org/1999/02/22-rdf-syntax-ns#"
   xmlns:svg="http://www.w3.org/2000/svg"
   xmlns="http://www.w3.org/2000/svg"
   xmlns:sodipodi="http://sodipodi.sourceforge.net/DTD/sodipodi-0.dtd"
   xmlns:inkscape="http://www.inkscape.org/namespaces/inkscape"
   id="svg2"
   version="1.1"
   inkscape:version="0.48.3.1 r9886"
   width="294.07501"
   height="80"
   xml:space="preserve"
   sodipodi:docname="nodejs-dark.eps"><metadata
     id="metadata8"><rdf:RDF><cc:Work
         rdf:about=""><dc:format>image/svg+xml</dc:format><dc:type
           rdf:resource="http://purl.org/dc/dcmitype/StillImage" /><dc:title></dc:title></cc:Work></rdf:RDF></metadata><defs
     id="defs6"><clipPath
       clipPathUnits="userSpaceOnUse"
       id="clipPath18"><path
         d="m 0,0 2352.62,0 0,1744 L 0,1744 0,0 z"
         id="path20"
         inkscape:connector-curvature="0" /></clipPath></defs><sodipodi:namedview
     pagecolor="#ffffff"
     bordercolor="#666666"
     borderopacity="1"
     objecttolerance="10"
     gridtolerance="10"
     guidetolerance="10"
     inkscape:pageopacity="0"
     inkscape:pageshadow="2"
     inkscape:window-width="1920"
     inkscape:window-height="1030"
     id="namedview4"
     showgrid="false"
     inkscape:zoom="1.0825068"
     inkscape:cx="-19.705103"
     inkscape:cy="109.00625"
     inkscape:window-x="0"
     inkscape:window-y="0"
     inkscape:window-maximized="1"
     inkscape:current-layer="g10" /><g
     id="g10"
     inkscape:groupmode="layer"
     inkscape:label="ink_ext_XXXXXX"
     transform="matrix(1.25,0,0,-1.25,0,218.0125)"><g
       id="g12"
       transform="matrix(0.1,0,0,0.1,0,52.8)"
       style="opacity:1"><g
         id="g14"><g
           id="g16"
           clip-path="url(#clipPath18)"
           transform="translate(0,-32)"
           style="opacity:1"><path
             d="m 591.555,924.07 c 0,5.422 -2.856,10.403 -7.532,13.086 l -124.687,71.754 c -2.109,1.25 -4.473,1.89 -6.863,1.99 -0.215,0 -1.118,0 -1.289,0 -2.383,-0.1 -4.746,-0.74 -6.887,-1.99 L 319.609,937.156 c -4.648,-2.683 -7.539,-7.664 -7.539,-13.086 l 0.274,-193.218 c 0,-2.692 1.394,-5.192 3.761,-6.5 2.313,-1.391 5.172,-1.391 7.481,0 l 74.102,42.425 c 4.683,2.782 7.539,7.696 7.539,13.067 l 0,90.273 c 0,5.379 2.847,10.36 7.515,13.035 l 31.555,18.176 c 2.351,1.356 4.922,2.02 7.551,2.02 2.566,0 5.203,-0.664 7.488,-2.02 l 31.543,-18.176 c 4.668,-2.675 7.527,-7.656 7.527,-13.035 l 0,-90.273 c 0,-5.371 2.895,-10.313 7.551,-13.067 l 74.082,-42.425 c 2.324,-1.391 5.227,-1.391 7.527,0 2.297,1.308 3.743,3.808 3.743,6.5 l 0.246,193.218"
             style="fill:#ffffff;fill-opacity:1;fill-rule:evenodd;stroke:none"
             id="path24"
             inkscape:connector-curvature="0" /><path
             d="m 1245.78,823.461 c 0,-1.344 -0.72,-2.586 -1.88,-3.258 l -42.83,-24.687 c -1.16,-0.668 -2.6,-0.668 -3.76,0 l -42.83,24.687 c -1.16,0.672 -1.88,1.914 -1.88,3.258 l 0,49.449 c 0,1.344 0.72,2.586 1.88,3.262 l 42.82,24.734 c 1.17,0.676 2.61,0.676 3.77,0 l 42.83,-24.734 c 1.16,-0.676 1.88,-1.918 1.88,-3.262 l 0,-49.449 z m 11.57,366.229 c -2.33,1.29 -5.18,1.27 -7.48,-0.08 -2.3,-1.36 -3.72,-3.83 -3.72,-6.5 l 0,-191.352 c 0,-1.879 -1,-3.625 -2.63,-4.567 -1.63,-0.941 -3.64,-0.941 -5.27,0 l -31.23,17.989 c -4.66,2.69 -10.39,2.69 -15.05,0 l -124.74,-71.989 c -4.66,-2.687 -7.53,-7.66 -7.53,-13.039 l 0,-144.004 c 0,-5.382 2.87,-10.351 7.53,-13.046 l 124.73,-72.043 c 4.66,-2.688 10.4,-2.688 15.07,0 l 124.75,72.043 c 4.66,2.695 7.53,7.664 7.53,13.046 l 0,358.962 c 0,5.46 -2.96,10.5 -7.73,13.16 l -74.23,41.42"
             style="fill:#ffffff;fill-opacity:1;fill-rule:evenodd;stroke:none"
             id="path26"
             inkscape:connector-curvature="0" /><path
             d="m 1703.62,874.207 c 4.64,2.695 7.49,7.656 7.49,13.023 l 0,34.899 c 0,5.367 -2.85,10.332 -7.5,13.027 l -123.93,71.954 c -4.67,2.71 -10.42,2.72 -15.1,0.02 l -124.69,-71.985 c -4.66,-2.688 -7.53,-7.661 -7.53,-13.04 l 0,-143.964 c 0,-5.418 2.91,-10.411 7.61,-13.094 l 123.92,-70.606 c 4.57,-2.601 10.17,-2.632 14.77,-0.082 l 74.95,41.661 c 2.38,1.32 3.86,3.82 3.87,6.531 0.02,2.719 -1.43,5.23 -3.78,6.586 l -125.48,72.019 c -2.35,1.344 -3.79,3.84 -3.79,6.535 l 0,45.118 c 0,2.687 1.44,5.179 3.77,6.523 l 39.06,22.512 c 2.32,1.344 5.19,1.344 7.52,0 l 39.07,-22.512 c 2.33,-1.344 3.77,-3.836 3.77,-6.523 l 0,-35.504 c 0,-2.692 1.44,-5.18 3.77,-6.524 2.34,-1.347 5.21,-1.34 7.54,0.016 l 74.69,43.41"
             style="fill:#ffffff;fill-opacity:1;fill-rule:evenodd;stroke:none"
             id="path28"
             inkscape:connector-curvature="0" /><path
             d="m 818.367,1007.89 c 4.66,2.69 10.403,2.69 15.063,0 l 124.718,-71.972 c 4.664,-2.691 7.536,-7.66 7.536,-13.047 l 0,-144.059 c 0,-5.378 -2.872,-10.351 -7.532,-13.046 L 833.434,693.73 c -4.664,-2.691 -10.407,-2.691 -15.071,0 l -124.691,72.036 c -4.656,2.691 -7.527,7.668 -7.527,13.046 l 0,144.063 c 0,5.383 2.871,10.352 7.531,13.043 l 124.691,71.972"
             style="fill:#8cc84b;fill-opacity:1;fill-rule:evenodd;stroke:none"
             id="path30"
             inkscape:connector-curvature="0" /><path
             d="m 1945.78,691.68 c -4.3,0 -8.57,1.121 -12.33,3.3 l -39.27,23.231 c -5.86,3.277 -3,4.449 -1.06,5.117 7.82,2.711 9.4,3.344 17.75,8.082 0.87,0.481 2.02,0.301 2.92,-0.23 l 30.17,-17.91 c 1.09,-0.598 2.63,-0.598 3.64,0 l 117.61,67.882 c 1.09,0.625 1.79,1.883 1.79,3.184 l 0,135.723 c 0,1.328 -0.7,2.57 -1.82,3.242 l -117.56,67.82 c -1.09,0.637 -2.53,0.637 -3.63,0 l -117.53,-67.84 c -1.14,-0.652 -1.86,-1.933 -1.86,-3.222 l 0,-135.723 c 0,-1.301 0.72,-2.531 1.86,-3.145 l 32.21,-18.613 c 17.48,-8.742 28.19,1.551 28.19,11.895 l 0,134.004 c 0,1.894 1.52,3.386 3.41,3.386 l 14.92,0 c 1.86,0 3.4,-1.492 3.4,-3.386 l 0,-134.004 c 0,-23.332 -12.7,-36.711 -34.82,-36.711 -6.8,0 -12.15,0 -27.09,7.367 l -30.84,17.75 c -7.62,4.406 -12.33,12.637 -12.33,21.457 l 0,135.723 c 0,8.82 4.71,17.05 12.33,21.433 l 117.61,67.958 c 7.44,4.21 17.33,4.21 24.71,0 l 117.6,-67.958 c 7.62,-4.402 12.36,-12.613 12.36,-21.433 l 0,-135.723 c 0,-8.82 -4.74,-17.024 -12.36,-21.457 l -117.6,-67.899 c -3.76,-2.179 -8.02,-3.3 -12.38,-3.3"
             style="fill:#8cc84b;fill-opacity:1;fill-rule:nonzero;stroke:none"
             id="path32"
             inkscape:connector-curvature="0" /><path
             d="m 1982.11,785.184 c -51.47,0 -62.25,23.625 -62.25,43.437 0,1.887 1.52,3.391 3.4,3.391 l 15.21,0 c 1.7,0 3.11,-1.223 3.38,-2.883 2.29,-15.477 9.14,-23.289 40.26,-23.289 24.77,0 35.32,5.605 35.32,18.75 0,7.578 -2.99,13.203 -41.49,16.972 -32.18,3.184 -52.08,10.293 -52.08,36.036 0,23.73 20,37.879 53.53,37.879 37.68,0 56.32,-13.075 58.68,-41.133 0.09,-0.965 -0.25,-1.895 -0.89,-2.617 -0.65,-0.672 -1.55,-1.082 -2.49,-1.082 l -15.27,0 c -1.58,0 -2.98,1.121 -3.3,2.656 -3.66,16.289 -12.57,21.496 -36.73,21.496 -27.05,0 -30.19,-9.426 -30.19,-16.488 0,-8.555 3.71,-11.043 40.23,-15.879 36.14,-4.774 53.31,-11.543 53.31,-36.942 0,-25.625 -21.36,-40.304 -58.63,-40.304"
             style="fill:#8cc84b;fill-opacity:1;fill-rule:nonzero;stroke:none"
             id="path34"
             inkscape:connector-curvature="0" /><path
             d="m 2144.28,1009.14 0,-3.49 -9.9,0 0,-25.787 -3.99,0 0,25.787 -9.86,0 0,3.49 23.75,0"
             style="fill:#8cc84b;fill-opacity:1;fill-rule:nonzero;stroke:none"
             id="path36"
             inkscape:connector-curvature="0" /><path
             d="m 2147.81,1009.14 5.69,0 8.4,-24.745 8.37,24.745 5.65,0 0,-29.277 -3.79,0 0,17.274 c 0,0.605 0.01,1.593 0.03,2.963 0.04,1.4 0.06,2.89 0.06,4.46 l -8.37,-24.697 -3.93,0 -8.44,24.697 0,-0.88 c 0,-0.72 0,-1.82 0.05,-3.3 0.03,-1.454 0.07,-2.54 0.07,-3.243 l 0,-17.274 -3.79,0 0,29.277"
             style="fill:#8cc84b;fill-opacity:1;fill-rule:nonzero;stroke:none"
             id="path38"
             inkscape:connector-curvature="0" /><path
             d="m 1570.29,880.953 c 0.9,0.516 2,0.516 2.89,0 l 23.94,-13.808 c 0.89,-0.52 1.44,-1.473 1.44,-2.508 l 0,-27.633 c 0,-1.039 -0.55,-1.988 -1.44,-2.508 l -23.94,-13.808 c -0.89,-0.516 -1.99,-0.516 -2.89,0 l -23.91,13.808 c -0.9,0.52 -1.45,1.469 -1.45,2.508 l 0,27.633 c 0,1.035 0.55,1.988 1.45,2.508 l 23.91,13.808"
             style="fill:#8cc84b;fill-opacity:1;fill-rule:evenodd;stroke:none"
             id="path40"
             inkscape:connector-curvature="0" /></g></g></g></g></svg>